<?xml version="1.0" encoding="utf-8"?>
<!-- Generator: Adobe Illustrator 21.1.0, SVG Export Plug-In . SVG Version: 6.00 Build 0)  -->
<svg version="1.1" id="Layer_1" xmlns="http://www.w3.org/2000/svg" xmlns:xlink="http://www.w3.org/1999/xlink" x="0px" y="0px"
	 viewBox="0 0 984.8 194.1" style="enable-background:new 0 0 984.8 194.1;" xml:space="preserve">
<style type="text/css">
	.st0{fill:#FFFFFF;stroke:#FFFFFF;stroke-width:3;stroke-miterlimit:10;}
	.st1{fill:#FFFFFF;}
	.st2{fill:none;}
</style>
<title>logo-black-illustrator</title>
<path class="st0" d="M248.3,99.9c-0.1-7.9,1.2-15.7,4-23.1c2.3-6.3,6-11.9,10.7-16.7c8.8-8.6,20.1-12.9,33.8-12.9
	s24.9,4.2,33.8,12.7c9.8,9.3,14.7,22.6,14.7,39.6s-4.5,30.2-13.5,39.3c-9,9.2-20.6,13.7-35,13.7s-26-4.6-34.9-13.9
	C252.8,129.5,248.3,116.5,248.3,99.9z M297,143.7c7.7,0.1,15.1-3.1,20.1-8.9c6.8-7.5,10.2-18.9,10.2-34.2s-2.9-26.5-8.8-33.8
	c-5.8-7.2-13.2-10.8-22-10.8c-8.9,0-16.1,3.6-21.8,10.8c-5.7,7.2-8.6,18-8.6,32.4c0,20.7,5.7,34.3,17,40.9
	C287.3,142.5,292.1,143.8,297,143.7z"/>
<path class="st0" d="M437.6,133.5c2.2,3.3,3.5,4.7,4.8,6.4s2.2,2.4,7,5.4l2.8,1.2l-1.7,4.8h-30.7l-1.8-2.2l1.8-2.5
	c2.3-3.1,3.9-6.4,2.6-9.6l-2.1-3.5l-21-33.6l-16.9,16.3v7.2c0,5.6-0.3,10.2,0.6,13.4c1,3.5,2.7,6.9,4.9,9.8l1.8,2.5l-1.8,2.2h-30.7
	l-1.7-4.8l3.2-0.8c3.6-1,5.9-2.4,7.2-4.1c1.2-1.7,1.8-4.7,1.8-9V68.2l0,0c0-4.3-0.6-8-1.8-9.6s-3.6-3-7.2-4.1l-3.2-0.8l1.7-4.8h30.7
	l1.8,2.2l-1.8,2.5c-2.3,3.1-4.2,6.3-4.9,9.8c-0.7,3.8-0.6,11-0.6,16.6v24.4l38.3-37c2.4-2.6,5-5.5,5-7.4c-0.1-2.4-0.8-4.7-1.8-6.8
	l-1.3-2.5l2.7-2.2h25.4l1.7,4.7l-3.2,0.8c-4.8,1.3-11.8,8.6-11.8,8.6l0,0L409.3,90L437.6,133.5L437.6,133.5z"/>
<path class="st0" d="M515.8,130.6c-2.4-4.2-4.2-8.8-5.3-13.5c-1.3-5.1-1.9-10.3-1.9-15.6c0-4.8,0.4-9.7,1.3-14.4
	c0.8-4.2,2.1-8.4,3.9-12.3c3.6-8.2,9.4-15.1,16.9-20c7.6-5,16.9-7.5,27.9-7.5c11,0,20.2,2.7,27.6,8.2c7.3,5.5,11,12.2,11,20.1
	c0,5.4-2.1,9-6.4,10.9c-1.3,0.6-2.8,0.9-4.2,0.9c-2.6,0.1-5.2-0.9-7.1-2.7c-1.8-1.7-2.7-4-2.7-6.4c0-4.8,1.9-8.2,5.8-10
	c-2-4-5.3-7.2-9.3-9.1c-4.2-2.2-8.8-3.3-13.5-3.3c-9.7,0-17.7,3.6-23.8,10.9c-6.1,7.3-9.2,18.1-9.2,32.6c0,14.5,3.2,25.5,9.6,33.1
	c6.4,7.6,14.2,11.4,23.3,11.4c7.4,0,13.2-1.9,17.3-5.6s6.1-7.9,6.1-12.4c0-4.5-1-7.3-3.1-8.5c-2.1-1.2-6.8-1.8-14.1-1.8v-9.1h31.4
	v44.8H588l-2.5-8.2c-3.9,4.1-10,7-18.2,8.6c-3.4,0.7-6.8,1-10.3,1c-3.9,0-7.8-0.4-11.7-1.3c-3.9-0.8-7.7-2.2-11.3-3.9
	c-3.6-1.8-7-4.1-10-6.9C520.7,137.7,518,134.3,515.8,130.6z"/>
<path class="st0" d="M702.4,99.9c-0.1-7.9,1.2-15.7,4-23.1c2.3-6.3,6-11.9,10.7-16.7c8.8-8.6,20.1-12.9,33.8-12.9
	s24.9,4.2,33.8,12.7c9.8,9.3,14.7,22.6,14.7,39.6s-4.5,30.2-13.5,39.3c-9,9.2-20.6,13.7-35,13.7s-26-4.6-34.9-13.9
	C706.9,129.5,702.4,116.5,702.4,99.9z M751,143.7c7.7,0.1,15.1-3.1,20.1-8.9c6.8-7.5,10.3-18.9,10.3-34.2s-2.9-26.5-8.8-33.8
	c-5.8-7.2-13.2-10.8-22.1-10.8c-8.9,0-16.1,3.6-21.8,10.8c-5.7,7.2-8.6,18-8.6,32.4c0,20.7,5.7,34.3,17,40.9
	C741.4,142.6,746.2,143.8,751,143.7z"/>
<path class="st0" d="M961.9,142.1c0-5.8,4.7-10.5,10.5-10.5s10.5,4.7,10.5,10.5c0,5.8-4.7,10.5-10.5,10.5c-2.8,0-5.4-1.1-7.4-3.1
	C963,147.6,961.9,144.9,961.9,142.1z M969.5,120.6c-0.6-5.7-1.3-11.4-2-17.2c-2.7-21.7-4.2-38.8-4.6-51.3c-0.1-3.3,3.1-4.9,9.7-4.9
	c4.8,0,7.9,0.7,9.2,2.2c0.6,0.8,0.9,1.8,0.8,2.7c-0.4,12.8-1.4,26-3,39.6s-2.7,23.2-3.3,28.9H969.5z"/>
<path class="st0" d="M697.6,147.6c-3.8,3.7-8.1,5.6-12.8,5.6s-8.4-1.3-11.2-3.9c-2.8-2.6-5.6-6.8-8.3-12.5l-10.7-22.6
	c-0.8-1.9-2.5-4.9-5.5-6c-1.7-0.5-2.8-2.1-2.7-3.8c0-1.9,0.7-2.8,2.2-2.8c0.1,0,1.4,0,2.9,0s-1.7,0,0,0c7,0,12.5-2,16.4-6
	s5.9-9.4,5.9-16.1c0-6.7-2.1-12.3-6.2-16.6c-4.2-4.3-9.9-6.5-17.2-6.5c-7.3,0-11,2.1-11,6.4v60.2c-0.1,4.6,0.4,9.1,1.4,13.5
	c1,3.6,2.7,6.9,4.9,9.9l1.8,2.5l-1.8,2.3H615l-1.7-4.8l3.2-0.8c3.6-0.9,5.9-2.3,7.2-4.1s1.8-4.8,1.8-9V63.3c0-2.2-1-3.4-3.1-3.4
	h-8.1l-1.7-5.2c5.2-1.9,10.5-3.3,15.9-4.3c6.3-1.2,12.6-1.9,19-1.9c13.8,0,24.1,2.9,30.8,8.6c6.7,5.7,10.1,13.1,10.1,22.2
	c0.1,6.5-1.9,12.9-5.8,18.1c-3.8,5.1-9.5,8.6-17,10.4c2.4,1.8,4.3,4.2,5.6,6.9l13,26.5c1.4,2.9,3.1,4.4,5,4.4c2.1,0,4.1-0.7,5.8-2
	L697.6,147.6z"/>
<path class="st0" d="M828.5,58.5c-1,1-1.5,2.4-1.5,3.8c0.2,2.4,0.7,4.8,1.5,7l22.9,70.4l20.9-65.2l-1.4-4.5c-1-3.5-2.6-6.8-4.8-9.8
	c-2.3-2.7-4.9-5.2-7.8-7.3l1.8-2.2h31.6l1.7,4.8l-3.2,0.8c-1.8,0.3-3.4,1.1-4.8,2.2c-1,1-1.5,2.4-1.5,3.8c0.2,2.4,0.7,4.8,1.5,7
	l22.9,70.4l19.6-61c1.8-5.6,2.7-9.9,2.7-13c-0.2-5.1-2.3-8.3-6.3-9.4l-3.2-0.8l1.7-4.8h26.6l1.8,2.2l-2.1,2.5
	c-3.5,4.1-6.1,8.9-7.7,14l-27.1,81.9h-16l-20.6-61.2l-20.2,61.2h-16L814.1,70c-1-3.5-2.6-6.8-4.8-9.8c-2.3-2.7-4.9-5.2-7.8-7.3
	l1.8-2.2h31.6l1.7,4.8l-3.2,0.8C831.6,56.6,829.9,57.3,828.5,58.5z"/>
<path class="st1" d="M47.5,37.3c3.2,0.5,6.3,1.1,9.4,2c3,1,5.9,2.2,8.7,3.5c0-0.9,0.1-1.8,0.2-2.7l0,0c0-2,0.4-4.2,0.9-6.1l0,0
	c0.8-3.4,2-6.7,3.3-10c-6.9-4.5-14.5-7.7-21.9-11.2c-0.2,4.1-0.5,8.2-0.7,12.2c-0.1,1.8-0.3,3.5-0.3,5.3C47,32.7,47.4,35,47.5,37.3z
	"/>
<path class="st1" d="M22.4,67.1l1.9,2.9c4.6-1.7,9.3-3.1,14.2-3.7c1.4-0.2,2.8-0.3,4.3-0.3l-0.1-0.2h0.1c-1.1-2.3-2.2-4.6-3-7
	c-0.5-1.6-1-3.2-1.3-4.8c-0.4-2.1-1-4.3-1-6.4c-2.3-0.1-4.7-0.4-7.1-0.2c-1.2,0.1-2.5,0.2-3.7,0.3c-3.7,0.3-7.3,0.6-11,0.9
	c-0.9,0.1-1.9,0.2-2.8,0.2c2.6,5.2,5.2,10.4,7.8,15.5C21.2,65.2,21.8,66.1,22.4,67.1z"/>
<path class="st1" d="M78.2,87.6c0.4,0,0.7-0.1,1.1-0.2v-0.1l0,0v0.1c0,0,0.4,0,0.5,0h0.2h0.2v-0.2c-3-7-9.6-12.9-20.4-14.9l0,0
	c-2.3-0.3-5-0.8-7.5-1c1.4,2,2.9,4,4.5,5.8H57h-0.2C63.8,84.8,71.2,87.9,78.2,87.6"/>
<path class="st1" d="M47.6,43c-1.8-0.3-3.4-0.7-5.3-0.8c0.1,1.9,0.5,3.8,0.8,5.5l0,0c0.8,6.3,2.8,12.5,6,18c2.1,0,4.2,0.2,6.4,0.4
	c0,0,0,0,0.1,0l0,0c4.9,0.5,9.7,1.8,14.3,3.7c-1-2.1-1.7-4.2-2.3-6.4c-0.3-1-0.5-2.1-0.7-3.1c-0.3-1.6-0.4-3.2-0.8-4.7l0,0l0,0l0,0
	c0,0,0-0.1,0-0.1l0,0l0.1,0.3c0-0.1,0-0.1,0-0.2c0,0.1,0,0.1,0,0.2l0-0.1c0-0.1,0,0.1,0,0.1l0,0l0,0l-0.4-2.6l0,0l0,0
	c0-1.3-0.2-2.6-0.2-3.8C59.8,46.2,53.8,44.1,47.6,43L47.6,43L47.6,43 M48.6,48.8"/>
<path class="st1" d="M17.5,108.3l3,1.6c1.3-1.6,2.7-3.2,4.1-4.6l0,0c1.6-1.6,3.3-3.1,5-4.6c1.6-1.3,3.2-2.4,4.8-3.6
	c-1.9-1.1-3.6-2.5-5.3-3.9c-1.5-1.3-2.9-2.6-4.3-4l0,0c-1-1.1-2-2.3-3-3.5l0,0c-0.5-0.6-1-1.2-1.4-1.9c-3.3,1.6-6.2,3.4-9.2,5.4
	c-3,2.1-6.1,4.2-9.1,6.3c-0.8,0.5-1.5,1.1-2.3,1.6c4.9,3.2,9.6,6.6,14.6,9.6C15.4,107.4,16.5,107.8,17.5,108.3z"/>
<path class="st1" d="M45.5,90.8c2.5-1.1,5.2-1.9,7.9-2.5c2.1-0.6,4.3-1.1,6.4-1.4c-4-2.9-7.6-6.3-10.4-10.4l0,0l0,0 M49.3,76.5
	L49.3,76.5L49.3,76.5C49.3,76.5,49.3,76.5,49.3,76.5L49.3,76.5l-1.5-2.1c-0.7-1.1-1.4-2.1-2.1-3.2c-6.3,0.1-12.6,1.3-18.5,3.5
	c-1.7,0.6-3.5,1.4-5.1,2.1c1.1,1.6,2.1,3.1,3.2,4.5c3.9,5.1,8.7,9.4,14.3,12.6l3.1-1.8c0.9-0.4,1.8-0.9,2.6-1.3"/>
<path class="st1" d="M42.8,128.2c-5,0-10-1.2-14.8-2.9c-1.4-0.5-2.7-1-4.1-1.6c-1.3,1.9-2.6,3.9-3.7,6c-0.5,1.1-1.1,2.2-1.6,3.4
	c-1.6,3.3-3.2,6.7-4.7,10c-0.4,0.8-0.8,1.7-1.2,2.5c3.3,0.2,6.6,0.4,9.9,0.6c3,0.2,6,0.5,9,0.4c1.8-0.1,3.7-0.2,5.5-0.2
	c1-6.2,2.7-12.2,5.5-17.9"/>
<path class="st1" d="M25.5,112.4c-1.2,1.4-2.3,2.9-3.4,4.4c7.5,3.7,15.3,6.1,23.7,6.1c0.7-1.1,1.4-2.2,2.1-3.2l0,0
	c0.5-0.8,1.1-1.5,1.6-2.2h-0.1l0,0c0,0,0,0,0.1,0l0,0l0,0l0,0l0,0c2.9-4,6.4-7.5,10.3-10.4c-4.9-0.5-9.7-1.9-14.3-3.9l0,0l0,0l0,0
	c-1.9-1-3.9-1.8-5.8-2.9C34.3,103.5,29.5,107.6,25.5,112.4z"/>
<path d="M52.3,99.8"/>
<path class="st1" d="M45.4,96.9l7.3,3.4c9.6,3,17.8,1.8,23.8-2.2c0.4-0.3,0.8-0.7,1.1-1c-0.4-0.3-0.9-0.7-1.3-1c-6-4-14-5.1-24-2
	l0,0l0,0l0,0l0,0C49.9,94.9,47.6,95.8,45.4,96.9"/>
<path class="st1" d="M69.5,168.6c-1-2.7-1.8-5.4-2.5-8.2l0,0c-0.7-3-1.2-6.1-1.2-9.2l-0.2,0.1l0,0c-0.3,0.1-0.2,0.1-0.4,0.2l0,0
	c-3,1.5-6.3,2.8-9.6,3.6c-2.7,0.7-5.6,1.4-8.4,1.3c-0.2,3.7-0.2,7.2,0.1,10.9c0.3,3.7,0.6,7.4,0.8,11.1c0.1,0.9,0.1,1.9,0.2,2.8
	c2.9-1.5,5.9-3,8.8-4.4c2.7-1.3,5.5-2.6,8-4.2c1.6-1,3.1-2,4.7-3C69.7,169.2,69.6,168.9,69.5,168.6z"/>
<path class="st1" d="M42.8,146L42.8,146L42.8,146c-0.3,1.8-0.8,3.7-0.7,5.5c0.9-0.1,1.9-0.1,2.8-0.2c1.6-0.1,1.7-0.1,2.7-0.2
	 M47.6,151.1c6.2-0.7,12.4-2.9,17.8-6l0-0.1l0,0l0,0c0,0,0-0.3,0-0.5l0,0c0-1.1,0.1-2.2,0.1-3.4l0,0c0-0.9,0.4-1.9,0.5-2.8l0,0l0,0
	c0.5-2.2,0.7-4.4,1.2-6.6c0.6-2.6,1.4-5.2,2.6-7.7c-1,0.4-2,0.8-3,1.2c-3.7,1.3-7.4,2-11.2,2.5l0,0l0,0l0,0c0,0,0,0.1,0,0
	c0,0,0,0,0,0s0,0.1-0.1,0.3l0.1-0.1c0,0,0-0.1,0.1-0.2l0,0l0,0l-0.1,0.3l0.1-0.3c-0.8,0.1-0.1,0-2.7,0.4c-0.1,0-0.3,0-0.4,0
	c0.4,0,0,0,0.4,0c-1.3,0-2.6,0.1-3.8,0.1c-3,5.5-5.1,11.5-6.2,17.7"/>
<path class="st1" d="M80.1,106.6L80.1,106.6L80.1,106.6L80.1,106.6C80.1,106.5,80.1,106.5,80.1,106.6c-0.6-0.1-1.1-0.1-1.7-0.2l0,0
	c-7.1-0.4-14.6,2.7-21.5,10.5l0,0l0,0c-1.6,1.8-3.1,3.8-4.5,5.8c2.4-0.2,4.9-0.5,7.2-1l0,0l0,0C70.5,119.4,77.2,113.6,80.1,106.6z"
	/>
<path class="st1" d="M146.2,156.6c-0.2,0-0.4,0-0.5-0.1h0.2c-1.1,0-2.4-0.4-3.4-0.6c-1.2-0.2-2.4-0.5-3.5-0.9
	c-2.3-0.6-4.6-1.4-6.8-2.3c-1.4-0.6-2.7-1.2-4-1.8c0,2.9-0.4,6-1,8.9l0,0c-0.8,3.4-1.9,6.8-3.3,10c1.9,1.3,3.9,2.6,6,3.7
	c1.1,0.5,2.2,1.1,3.4,1.6c3.3,1.6,6.7,3.2,10,4.7c0.8,0.4,1.7,0.8,2.5,1.2c0.1-2.8,0.3-5.7,0.4-8.5c0.2-3,0.4-6.1,0.5-9.1
	C146.5,161.1,146.3,158.9,146.2,156.6z"/>
<path class="st1" d="M171.3,126.9l-1.9-3c-4.7,1.7-9.4,3-14.3,3.7c-1.4,0.2-2.8,0.3-4.2,0.3c1.3,2.7,2.6,5.4,3.4,8.3l0,0
	c1,3.2,1.8,6.7,1.9,10l0,0c0,0.1,0,0.1,0,0.2c2.3,0.1,4.7,0.3,7.1,0.2c1.2-0.1,2.5-0.2,3.7-0.3c3.7-0.3,7.3-0.6,11-0.9
	c0.9-0.1,1.9-0.2,2.8-0.2c-2.6-5.2-4.9-10.5-7.8-15.5C172.5,128.7,171.9,127.8,171.3,126.9z"/>
<line class="st2" x1="144.3" y1="145.3" x2="144.3" y2="145.3"/>
<path d="M145.1,145.5"/>
<path d="M149.6,146.1"/>
<path d="M145.2,145.4"/>
<polyline points="145.1,145.5 145.1,145.4 145.1,145.4 145.1,145.4 145.1,145.4 "/>
<path class="st1" d="M171.9,108.5c0.5,0.6,0.9,1.2,1.4,1.8c3.3-1.6,6.2-3.4,9.2-5.4c3-2.1,6.1-4.2,9.1-6.3c0.8-0.5,1.5-1.1,2.3-1.6
	c-2.7-1.8-5.5-3.6-8.2-5.4c-2.5-1.6-4.9-3.5-7.6-4.9c-1.6-0.8-3.2-1.7-4.9-2.6c-0.6,0.7-1.1,1.4-1.7,2.1l0,0c-2.3,2.6-4.8,5-7.4,7.2
	c-1.6,1.2-3.1,2.4-4.8,3.5h0.1h0c1,0.3,1.9,1.3,2.8,1.9c0.9,0.7,1.8,1.4,2.6,2.1c1.7,1.4,3.4,3,4.9,4.7
	C170.4,106.5,171.3,107.4,171.9,108.5z"/>
<path class="st1" d="M141.3,122.6c-1.4-2-2.9-3.9-4.5-5.8l0,0l0,0c-5.9-6.6-14.2-11.5-23.3-10.3c3.5,8.5,11.8,13.2,20.5,15
	C136.4,122,138.9,122.4,141.3,122.6z"/>
<path class="st1" d="M151.1,65.2l-0.2,0.4v0.2l0,0l0,0c3,0.2,5.9,0.4,8.8,1.1c1.9,0.5,3.7,1,5.5,1.6c1.5,0.5,2.9,1.1,4.4,1.7
	c1.3-1.9,2.6-3.9,3.7-6c0.5-1.1,1.1-2.2,1.6-3.4c1.6-3.3,3.2-6.7,4.7-10c0.4-0.8,0.8-1.7,1.2-2.5c-3.3-0.2-6.6-0.4-9.9-0.6
	c-3-0.2-6-0.5-9-0.4c-1.8,0.1-3.6,0.2-5.4,0.2c-0.6,3.2-1.1,6.4-2.2,9.4l0,0c-0.5,1.5-1,2.9-1.5,4.3
	C152.2,62.6,151.5,63.9,151.1,65.2z"/>
<path class="st1" d="M148.1,90.9c2,0.9,4,1.8,5.9,2.9c7-4.3,12.8-10,17.6-16.6c-3.7-1.8-7.5-3.5-11.5-4.5c-4-1-8.1-1.6-12.2-1.5
	c-0.7,1.1-1.3,2.1-2,3.2l0,0c-0.6,0.8-1.1,1.6-1.6,2.4 M144.3,76.6c-1.2,1.6-2.5,3.3-3.9,4.7l0,0c-2,2.1-4.1,4-6.4,5.7
	c4.9,0.5,9.6,1.9,14.1,3.8"/>
<path class="st1" d="M148.2,97c-2.2-1.1-4.5-1.9-6.9-2.8c-8.4-2.7-18-2.8-25.2,2.8c0,0,0.1,0,0.1,0V97c7.3,5.6,16.8,5.4,25.1,2.7
	C143.6,98.9,146,98,148.2,97z"/>
<path class="st1" d="M135.1,39.9c3.8-1.1,7.8-2.2,11.3-2.2c0.4-8.3-0.5-16.5-1.1-24.8c-2.9,1.5-5.9,3-8.8,4.4
	c-2.6,1.3-5.4,2.5-7.9,4.1c-1.6,1-3.2,2-4.8,3c2.2,5.9,3.9,12.1,4.2,18.4l0,0c0.8-0.4,1.6-0.7,2.5-1.1
	C132,41.1,133.5,40.5,135.1,39.9"/>
<polygon points="113.6,87.2 113.6,87.2 113.6,87.2 113.6,87.2 113.6,87.2 "/>
<path class="st1" d="M113.3,87.2L113.3,87.2c0.7,0,1.4,0.3,2.2,0.3h-0.2c7.1,0.4,14.6-2.6,21.6-10.4l0,0l0,0l0,0
	c1.6-1.8,3.2-3.7,4.4-5.8c-2.5,0.2-5,0.4-7.5,1l0,0C125.3,73.7,116.8,79.1,113.3,87.2z"/>
<path class="st1" d="M84.7,21.3c4.6,3.9,8.6,8.2,12.1,13.2v-0.1v0.1l0,0c2-2.9,4.1-5.8,6.6-8.3c1.2-1.2,2.4-2.3,3.7-3.4
	c0.9-0.8,2-1.8,3-2.3c-3.7-7.3-8.7-13.9-13.4-20.6c-1.8,2.8-3.7,5.6-5.5,8.3c-1.6,2.5-3.5,4.9-4.8,7.6c-0.8,1.6-1.7,3.2-2.5,4.8
	C84.1,20.9,84.4,21.1,84.7,21.3z"/>
<path class="st1" d="M76.4,49.6c4,2.9,7.7,6.4,10.5,10.4c-0.1-2.9,0.8-6,1.7-8.7c0.9-2.7,1.9-5.4,3.2-8l0,0l0,0
	c0.6-1.2,1.1-2.3,1.8-3.4c-4.2-7-10-12.8-16.6-17.6c-3.7,7.5-6.1,15.3-6,23.7C72.7,47.1,74.6,48.4,76.4,49.6z M90.5,45.7 M90.7,45.7
	"/>
<polygon points="76.4,49.6 76.4,49.6 76.4,49.6 "/>
<path class="st1" d="M71.1,52.5c0.2,2.4,0.5,4.8,0.9,7.2l0,0c2.3,11,8.1,17.5,15.1,20.5h0.1l0,0c0,0,0,0,0,0.1s0-0.1,0-0.1
	c0-0.3,0-0.5,0.1-0.8v-2.5c0-0.2,0-0.3,0-0.5c-0.1-1.6-0.3-3.1-0.7-4.6c-1.3-5-4.5-9.9-9.7-14.7c0,0,0,0,0,0l0,0
	C75.1,55.4,73.2,53.9,71.1,52.5z"/>
<path class="st1" d="M117.1,22.3c-1.6,1.1-3.2,2.1-4.6,3.2c0,0,0,0.1,0,0.1l-0.1-0.1c-5.1,3.9-9.4,8.7-12.6,14.3
	c0.6,1.1,1.2,2.2,1.7,3.4l0,0c0.3,0.8,0.6,1.3,1.1,2.5l0,0c0.3,0.8,0.7,1.7,1,2.4c0.3,0.8,0.5,1.6,0.8,2.4c0.3,0.9,0.6,1.9,0.8,2.9
	c0.6,2.1,1,4.3,1,6.5c2.9-4.1,6.5-7.3,10.4-10.3l0,0l0,0l0,0l0,0l0,0l0,0l0,0l0,0c0.7-0.5,1.4-1.2,2.1-1.6c0,0,0,0,0,0
	c0.6-0.4,1.2-0.9,1.9-1.2c0.3-0.1,1.4-0.8,1.4-0.8l0,0l0,0l0,0c0.1-6.3-1.1-12.5-3.2-18.4"/>
<path class="st1" d="M99.5,52.5L99.5,52.5L99.5,52.5c-0.8-2.3-1.7-4.6-2.7-6.8c-1.1,2.2-2,4.5-2.8,6.8v0.1l0,0
	c-2.5,7.5-2.4,14-0.6,19.3c0.4,1.3,1,2.5,1.7,3.6l0.2,0.2l0.6,0.9c0.3,0.4,0.6,0.9,0.9,1.3C101.6,71.7,103,63.2,99.5,52.5z"/>
<path class="st1" d="M106.4,80.3L106.4,80.3L106.4,80.3L106.4,80.3c0.1,0,0.4-0.1,0.5-0.2l0.3-0.1l0.5-0.2l0.3-0.1l0.3-0.2l0.3-0.1
	l0,0L109,79l0.1-0.1l0.2-0.1l0.6-0.3l0,0l0.4-0.2l0.3-0.2l0.4-0.3l0.5-0.4l0.6-0.5l0.2-0.2l0.1-0.1l0.4-0.4l0.3-0.2l0.3-0.3l0.2-0.2
	l0.5-0.5l0.2-0.2l0.4-0.4l0.2-0.2l0.5-0.6c2.7-3.6,4.6-7.7,5.6-12c0.1-0.5,0.2-1,0.4-1.6l-0.1,0.1l0,0l0.1-0.1
	c0.5-2.4,0.8-4.8,1-7.3c-2,1.4-3.9,2.9-5.8,4.5v0.2v-0.2C108.3,64.5,105.4,72.7,106.4,80.3l0.1-0.1l0,0"/>
<path class="st1" d="M109.9,173.3c-2.1-1.9-5.3-4.4-7.1-6.6l0,0c-2.1-2.3-4.1-4.7-5.8-7.3v0.1v0l0,0c-1.7,2.5-3.4,4.8-5.4,7.1l0,0
	c-2.4,2.6-5,4.9-7.8,7c3.7,7.3,8.7,13.9,13.4,20.6c1.8-2.8,3.7-5.6,5.5-8.3c1.6-2.5,3.5-4.9,4.8-7.6
	C108.2,176.5,109.1,174.9,109.9,173.3C109.6,173,109.9,173.3,109.9,173.3z"/>
<path class="st1" d="M77.1,137c7.6-6.8,10.5-14.1,10.3-21.1c0-0.1,0-0.2,0-0.3v-0.3l0,0c0,0,0,0.5,0,0.5l0,0v-0.5l0,0
	c0,0,0-1.2,0-1.8v0.1c0,0-0.1,0.1-0.2,0.1l0,0l0,0c-7.1,3-12.6,9.6-14.9,20.5l0,0l0,0.1c-0.5,2.4-0.8,4.8-1,7.2
	C73.4,140.1,75.3,138.6,77.1,137"/>
<path class="st1" d="M102.2,150c-0.7,1.4-1.4,2.8-2.1,4.1c4.3,7,10,12.8,16.7,17.6c3.7-7.5,6.1-15.3,6-23.7
	c-1.9-1.1-3.6-2.3-5.4-3.5l0,0l0,0l0,0l0,0l0,0l0,0l0,0c-0.1-0.1-0.3-0.2-0.4-0.3c0.1,0-0.2-0.2-0.2-0.2l0,0l0,0c-4-2.9-7.1-6-10-10
	c0,4.9-1.9,9.7-3.7,14.3 M114.6,163.1c-0.2-0.2-0.3-0.3-0.5-0.5L114.6,163.1L114.6,163.1L114.6,163.1z"/>
<path class="st1" d="M98.7,119c-0.5-1-1.2-1.9-1.8-2.8c-0.6,0.7-1.1,1.5-1.5,2.3c-3.5,5.9-4.3,13.6-1.2,23l0,0v0
	c0.8,2.3,1.7,4.6,2.8,6.8c1.1-2.2,2-4.5,2.8-6.8v0l0,0C102.6,132.4,101.9,124.8,98.7,119z"/>
<path class="st1" d="M122.6,141.4c-0.2-2.4-0.5-4.9-1-7.2h0l0,0c-2.3-11-8-17.5-15.1-20.5l0,0l0,0v0.1c-0.1,0.7-0.1,1.3-0.2,2
	c-0.3,7,2.9,14.4,10.5,21.2v-0.4l0.1,0.4C118.6,138.6,120.5,140.1,122.6,141.4z"/>
<path class="st1" d="M81.2,168.4c5.1-3.9,9.4-8.7,12.6-14.3c-0.6-1.1-1.2-2.3-1.8-3.4l0,0c-0.3-0.8-0.8-1.6-1.2-2.4l0,0c0,0,0,0,0,0
	l0,0l0,0l0.1,0.1c0,0-0.1-0.1-0.1-0.1c-0.4-1-0.8-2-1.1-3l0,0c-1.3-3.7-2.3-7.4-2.6-11.3c-0.7,0.9-1.3,1.7-2,2.6l0,0
	c-1.8,2.1-3.8,4-6,5.8c-0.8,0.7-1.6,1.3-2.5,1.9l0,0c-0.7,0.5-1.5,1.1-2.2,1.6c0,0,0,0,0,0c-1,0.7-2.1,1.4-3.2,2.1
	c0.1,6.2,1,12.3,3.2,18.2h-0.1h0.1c0.8,1.7,1.2,3.6,1.9,5.3l0,0l-0.4-1.5l0,0l0.4,1.5l0,0C77.9,170.4,79.8,169.5,81.2,168.4"/>
<path class="st1" d="M144.5,117.5c1.3,1.8,2.5,3.5,3.7,5.4c8.2-0.2,16.1-2.4,23.6-5.8c-2.4-3.5-4.9-6.8-7.9-9.8
	c-2.9-2.8-6.2-5.2-9.7-7.2c-1.1,0.6-2.2,1.2-3.3,1.8c-0.9,0.4-1.7,0.9-2.6,1.3 M148.2,103.2c-1.8,0.8-3.8,1.6-5.7,2.1
	c-2.8,0.9-5.5,1.5-8.4,1.8c4,2.9,7.4,6.4,10.4,10.3l0,0"/>
<path class="st1" d="M127.8,138.4c0.1,0.9,0.1,1.8,0.2,2.7l0-0.4c0.1,1.3,0.3,2.9,0.3,4.2c7.2,4,15.1,6.1,23.2,6.9
	c-0.6-8.3-2.4-16.3-6.6-23.5c-1.3,0-2.5-0.1-3.8-0.1c-1-0.1-1.9-0.1-2.9-0.2 M138.2,128c-2-0.2-4-0.6-6-1c-2.8-0.9-5.5-1.6-8.2-2.7
	c1.5,3.5,2.7,7.2,3.3,11l0,0c0.2,1,0.3,2.1,0.5,3.1l0,0"/>
<path class="st1" d="M127.8,55.5c-0.5,4.9-1.7,9.8-3.8,14.3c2.5-1.5,5.6-2.2,8.4-2.9c2.8-0.6,5.6-1,8.5-1.2l0,0l0,0
	c1.3-0.1,2.6-0.1,3.8-0.2c4-7.2,6.2-15.1,7-23.2c-8.3,0.5-16.3,2.3-23.6,6.5C128.1,51,128,53.3,127.8,55.5z M138.2,65.8 M138.3,65.9
	"/>
</svg>
